<svg width="281" height="71" viewBox="0 0 281 71" fill="none" xmlns="http://www.w3.org/2000/svg">
<g id="logo(blackBG)">
<g id="Group 12">
<g id="Group">
<path id="Fill 1" fill-rule="evenodd" clip-rule="evenodd" d="M35.5 0C15.894 0 0 15.894 0 35.5C0 43.3053 2.52586 50.5185 6.79524 56.378C6.78586 56.4202 6.77313 56.4624 6.76509 56.5039L4.70475 67.4098C4.34507 69.3121 5.59694 70.5224 7.48648 70.0991L18.316 67.6731C18.7266 67.5813 19.1332 67.4158 19.5243 67.1995C24.3275 69.6249 29.7517 71 35.5 71C55.106 71 71 55.1067 71 35.5C71 15.894 55.106 0 35.5 0" fill="#FFFFFE"/>
<path id="Fill 4" fill-rule="evenodd" clip-rule="evenodd" d="M57.5041 35.5001C57.5041 47.6527 47.6524 57.5039 35.5 57.5039C23.3475 57.5039 13.4958 47.6527 13.4958 35.5001C13.4958 23.3474 23.3475 13.4956 35.5 13.4956C47.6524 13.4956 57.5041 23.3474 57.5041 35.5001" fill="#15A7C9"/>
<path id="Fill 5" fill-rule="evenodd" clip-rule="evenodd" d="M50.4629 35.2069C50.4629 43.3087 43.8951 49.8759 35.7934 49.8759C27.6918 49.8759 21.124 43.3087 21.124 35.2069C21.124 27.105 27.6918 20.5371 35.7934 20.5371C43.8951 20.5371 50.4629 27.105 50.4629 35.2069" fill="#141821"/>
<path id="Fill 6" fill-rule="evenodd" clip-rule="evenodd" d="M56.9175 22.8845C56.9175 27.7455 52.9765 31.6858 48.1155 31.6858C43.2545 31.6858 39.3142 27.7455 39.3142 22.8845C39.3142 18.0235 43.2545 14.0825 48.1155 14.0825C52.9765 14.0825 56.9175 18.0235 56.9175 22.8845" fill="#FFFFFE"/>
</g>
<path id="&#208;&#146;&#208;&#151;&#208;&#144;&#208;&#165;&#208;&#155;&#208;&#129;&#208;&#145;" fill-rule="evenodd" clip-rule="evenodd" d="M243.415 24.6355C243.415 25.4943 244.117 26.1958 244.976 26.1958C245.849 26.1958 246.536 25.4943 246.536 24.6355C246.536 23.7623 245.849 23.0752 244.976 23.0752C244.117 23.0752 243.415 23.7623 243.415 24.6355ZM136.709 39.809V37.5186H139.5C142.02 37.5186 143.795 35.987 143.795 33.8255C143.795 31.6926 142.22 30.3614 139.687 30.3614C137.124 30.3614 135.464 31.6783 135.249 33.8541H132.744C133.002 30.2755 135.678 28.0711 139.787 28.0711C143.652 28.0711 146.414 30.3757 146.414 33.5965C146.414 35.8868 144.854 37.8336 142.578 38.3918V38.5063C145.326 38.8642 147.016 40.8396 147.016 43.6453C147.016 47.0521 143.823 49.7003 139.744 49.7003C135.392 49.7003 132.372 47.3527 132.186 43.8313H134.676C134.905 46.0072 136.881 47.41 139.715 47.41C142.478 47.41 144.367 45.8497 144.367 43.5737C144.367 41.2118 142.592 39.809 139.615 39.809H136.709ZM114.301 49.2136H106.5V28.5577H114.33C117.866 28.5577 120.256 30.619 120.256 33.7109C120.256 35.8581 118.682 37.8622 116.692 38.22V38.3345C119.498 38.6924 121.301 40.6678 121.301 43.4162C121.301 47.0521 118.696 49.2136 114.301 49.2136ZM109.077 30.8337V37.4613H112.942C115.991 37.4613 117.651 36.2446 117.651 34.0115C117.651 31.9645 116.248 30.8337 113.743 30.8337H109.077ZM113.915 46.9375H109.077V39.6801H113.672C116.964 39.6801 118.653 40.8968 118.653 43.2873C118.653 45.6779 117.021 46.9375 113.915 46.9375ZM170.339 43.3017L172.415 49.2136H175.121L167.505 28.5577H164.957L157.342 49.2136H160.047L162.123 43.3017H170.339ZM166.188 31.6926L162.882 41.1115H169.581L166.274 31.6926H166.188ZM191.472 38.8642L184.444 49.2136H187.364L192.932 40.9827H193.032L198.515 49.2136H201.607L194.636 38.9787V38.8928L201.764 28.5577H198.83L193.247 36.8601H193.147L187.636 28.5577H184.53L191.472 38.764V38.8642ZM228.208 49.2136H225.631V30.8767H218.087L217.429 41.4837C217.085 46.9805 215.496 49.3424 212.161 49.3424C211.789 49.3424 211.417 49.2851 211.159 49.1993V46.8946C211.317 46.9376 211.703 46.9805 211.932 46.9805C213.893 46.9805 214.766 45.3773 214.995 41.3835L215.74 28.5577H228.208V49.2136ZM250.329 26.1958C249.47 26.1958 248.769 25.4943 248.769 24.6355C248.769 23.7623 249.47 23.0752 250.329 23.0752C251.202 23.0752 251.889 23.7623 251.889 24.6355C251.889 25.4943 251.202 26.1958 250.329 26.1958ZM254.051 49.2136V46.8946H243.83V39.7946H253.521V37.5043H243.83V30.8767H254.051V28.5577H241.254V49.2136H254.051ZM280.61 43.0154C280.61 46.6656 277.876 49.2136 273.997 49.2136H266.481V28.5577H278.549V30.8767H269.058V36.7886H273.968C277.847 36.7886 280.61 39.3509 280.61 43.0154ZM273.324 46.8945H269.058V39.1074H273.324C276.273 39.1074 277.962 40.5102 277.962 43.0153C277.962 45.506 276.287 46.8945 273.324 46.8945Z" fill="white"/>
</g>
</g>
</svg>
