<svg width="169" height="52" viewBox="0 0 169 52" fill="none" xmlns="http://www.w3.org/2000/svg">
<g filter="url(#filter0_d)">
<path fill-rule="evenodd" clip-rule="evenodd" d="M25.6596 5C14.2497 5 5 14.2497 5 25.6596C5 30.202 6.46995 34.3998 8.95457 37.8098C8.94911 37.8344 8.9417 37.859 8.93703 37.8831L7.73799 44.2299C7.52866 45.337 8.25721 46.0413 9.35684 45.795L15.6592 44.3831C15.8982 44.3297 16.1348 44.2334 16.3624 44.1075C19.1577 45.519 22.3143 46.3193 25.6596 46.3193C37.0696 46.3193 46.3193 37.07 46.3193 25.6596C46.3193 14.2497 37.0696 5 25.6596 5" fill="#FFFFFE"/>
<path fill-rule="evenodd" clip-rule="evenodd" d="M38.4651 25.6598C38.4651 32.7321 32.7318 38.4651 25.6596 38.4651C18.5873 38.4651 12.854 32.7321 12.854 25.6598C12.854 18.5874 18.5873 12.854 25.6596 12.854C32.7318 12.854 38.4651 18.5874 38.4651 25.6598" fill="#15A7C9"/>
<path fill-rule="evenodd" clip-rule="evenodd" d="M34.3675 25.4894C34.3675 30.2043 30.5454 34.0262 25.8305 34.0262C21.1156 34.0262 17.2935 30.2043 17.2935 25.4894C17.2935 20.7744 21.1156 16.9521 25.8305 16.9521C30.5454 16.9521 34.3675 20.7744 34.3675 25.4894" fill="#141821"/>
<path fill-rule="evenodd" clip-rule="evenodd" d="M38.1238 18.3182C38.1238 21.1471 35.8304 23.4402 33.0014 23.4402C30.1725 23.4402 27.8794 21.1471 27.8794 18.3182C27.8794 15.4893 30.1725 13.1958 33.0014 13.1958C35.8304 13.1958 38.1238 15.4893 38.1238 18.3182" fill="#FFFFFE"/>
</g>
<path fill-rule="evenodd" clip-rule="evenodd" d="M146.658 19.3367C146.658 19.8366 147.067 20.2448 147.566 20.2448C148.075 20.2448 148.475 19.8366 148.475 19.3367C148.475 18.8286 148.075 18.4287 147.566 18.4287C147.067 18.4287 146.658 18.8286 146.658 19.3367ZM84.5595 28.1671V26.8342H86.184C87.6502 26.8342 88.6831 25.9429 88.6831 24.685C88.6831 23.4437 87.7668 22.669 86.2923 22.669C84.8011 22.669 83.8348 23.4354 83.7098 24.7016H82.252C82.4019 22.619 83.9597 21.3361 86.3506 21.3361C88.5998 21.3361 90.2076 22.6773 90.2076 24.5517C90.2076 25.8846 89.2996 27.0175 87.975 27.3424V27.409C89.5745 27.6173 90.5575 28.7669 90.5575 30.3997C90.5575 32.3824 88.6998 33.9235 86.3256 33.9235C83.7931 33.9235 82.0354 32.5573 81.9271 30.508H83.3766C83.5099 31.7742 84.6595 32.5906 86.3089 32.5906C87.9167 32.5906 89.0164 31.6826 89.0164 30.358C89.0164 28.9835 87.9834 28.1671 86.2506 28.1671H84.5595ZM71.5191 33.6402H66.979V21.6193H71.5358C73.5934 21.6193 74.9846 22.8189 74.9846 24.6183C74.9846 25.8679 74.0683 27.0342 72.9103 27.2424V27.3091C74.5431 27.5173 75.5927 28.6669 75.5927 30.2664C75.5927 32.3823 74.0766 33.6402 71.5191 33.6402ZM68.4785 22.9438V26.8009H70.7278C72.5022 26.8009 73.4685 26.0928 73.4685 24.7932C73.4685 23.602 72.6521 22.9438 71.1943 22.9438H68.4785ZM71.2943 32.3157H68.4785V28.0921H71.1526C73.0686 28.0921 74.0516 28.8002 74.0516 30.1914C74.0516 31.5826 73.102 32.3157 71.2943 32.3157ZM104.131 30.1997L105.339 33.6402H106.914L102.482 21.6193H100.999L96.567 33.6402H98.1415L99.3494 30.1997H104.131ZM101.715 23.4437L99.7909 28.9252H103.69L101.765 23.4437H101.715ZM116.43 27.6173L112.339 33.6402H114.039L117.279 28.8502H117.338L120.528 33.6402H122.328L118.271 27.6839V27.6339L122.419 21.6193H120.711L117.463 26.451H117.404L114.197 21.6193H112.389L116.43 27.559V27.6173ZM137.808 33.6402H136.309V22.9689H131.919L131.535 29.1418C131.335 32.3407 130.411 33.7152 128.47 33.7152C128.253 33.7152 128.037 33.6819 127.887 33.6319V32.2907C127.978 32.3157 128.203 32.3407 128.336 32.3407C129.478 32.3407 129.986 31.4077 130.119 29.0835L130.552 21.6193H137.808V33.6402ZM150.682 20.2448C150.182 20.2448 149.774 19.8366 149.774 19.3367C149.774 18.8286 150.182 18.4287 150.682 18.4287C151.19 18.4287 151.59 18.8286 151.59 19.3367C151.59 19.8366 151.19 20.2448 150.682 20.2448ZM152.848 33.6402V32.2907H146.9V28.1588H152.54V26.8259H146.9V22.9689H152.848V21.6193H145.401V33.6402H152.848ZM168.304 30.0331C168.304 32.1574 166.713 33.6402 164.456 33.6402H160.082V21.6193H167.105V22.9689H161.582V26.4094H164.439C166.696 26.4094 168.304 27.9005 168.304 30.0331ZM164.064 32.2906H161.582V27.7588H164.064C165.78 27.7588 166.763 28.5752 166.763 30.0331C166.763 31.4826 165.788 32.2906 164.064 32.2906Z" fill="#141821"/>
<defs>
<filter id="filter0_d" x="0" y="0" width="51.3193" height="51.3193" filterUnits="userSpaceOnUse" color-interpolation-filters="sRGB">
<feFlood flood-opacity="0" result="BackgroundImageFix"/>
<feColorMatrix in="SourceAlpha" type="matrix" values="0 0 0 0 0 0 0 0 0 0 0 0 0 0 0 0 0 0 127 0"/>
<feOffset/>
<feGaussianBlur stdDeviation="2.5"/>
<feColorMatrix type="matrix" values="0 0 0 0 0 0 0 0 0 0 0 0 0 0 0 0 0 0 0.15 0"/>
<feBlend mode="normal" in2="BackgroundImageFix" result="effect1_dropShadow"/>
<feBlend mode="normal" in="SourceGraphic" in2="effect1_dropShadow" result="shape"/>
</filter>
</defs>
</svg>
