<svg width="1064" height="575" viewBox="0 0 1064 575" fill="none" xmlns="http://www.w3.org/2000/svg">
<path d="M13.375 167.801C13.375 169.738 12.9297 171.297 12.0391 172.477C11.1484 173.648 9.95312 174.234 8.45312 174.234C6.85156 174.234 5.61328 173.668 4.73828 172.535L4.63281 174H2.64062V156H4.80859V162.715C5.68359 161.629 6.89062 161.086 8.42969 161.086C9.96875 161.086 11.1758 161.668 12.0508 162.832C12.9336 163.996 13.375 165.59 13.375 167.613V167.801ZM11.207 167.555C11.207 166.078 10.9219 164.938 10.3516 164.133C9.78125 163.328 8.96094 162.926 7.89062 162.926C6.46094 162.926 5.43359 163.59 4.80859 164.918V170.402C5.47266 171.73 6.50781 172.395 7.91406 172.395C8.95312 172.395 9.76172 171.992 10.3398 171.188C10.918 170.383 11.207 169.172 11.207 167.555ZM18.4727 174H16.3047V156H18.4727V174ZM29.7812 174C29.6562 173.75 29.5547 173.305 29.4766 172.664C28.4688 173.711 27.2656 174.234 25.8672 174.234C24.6172 174.234 23.5898 173.883 22.7852 173.18C21.9883 172.469 21.5898 171.57 21.5898 170.484C21.5898 169.164 22.0898 168.141 23.0898 167.414C24.0977 166.68 25.5117 166.312 27.332 166.312H29.4414V165.316C29.4414 164.559 29.2148 163.957 28.7617 163.512C28.3086 163.059 27.6406 162.832 26.7578 162.832C25.9844 162.832 25.3359 163.027 24.8125 163.418C24.2891 163.809 24.0273 164.281 24.0273 164.836H21.8477C21.8477 164.203 22.0703 163.594 22.5156 163.008C22.9688 162.414 23.5781 161.945 24.3438 161.602C25.1172 161.258 25.9648 161.086 26.8867 161.086C28.3477 161.086 29.4922 161.453 30.3203 162.188C31.1484 162.914 31.5781 163.918 31.6094 165.199V171.035C31.6094 172.199 31.7578 173.125 32.0547 173.812V174H29.7812ZM26.1836 172.348C26.8633 172.348 27.5078 172.172 28.1172 171.82C28.7266 171.469 29.168 171.012 29.4414 170.449V167.848H27.7422C25.0859 167.848 23.7578 168.625 23.7578 170.18C23.7578 170.859 23.9844 171.391 24.4375 171.773C24.8906 172.156 25.4727 172.348 26.1836 172.348ZM40.0938 172.465C40.8672 172.465 41.543 172.23 42.1211 171.762C42.6992 171.293 43.0195 170.707 43.082 170.004H45.1328C45.0938 170.73 44.8438 171.422 44.3828 172.078C43.9219 172.734 43.3047 173.258 42.5312 173.648C41.7656 174.039 40.9531 174.234 40.0938 174.234C38.3672 174.234 36.9922 173.66 35.9688 172.512C34.9531 171.355 34.4453 169.777 34.4453 167.777V167.414C34.4453 166.18 34.6719 165.082 35.125 164.121C35.5781 163.16 36.2266 162.414 37.0703 161.883C37.9219 161.352 38.9258 161.086 40.082 161.086C41.5039 161.086 42.6836 161.512 43.6211 162.363C44.5664 163.215 45.0703 164.32 45.1328 165.68H43.082C43.0195 164.859 42.707 164.188 42.1445 163.664C41.5898 163.133 40.9023 162.867 40.082 162.867C38.9805 162.867 38.125 163.266 37.5156 164.062C36.9141 164.852 36.6133 165.996 36.6133 167.496V167.906C36.6133 169.367 36.9141 170.492 37.5156 171.281C38.1172 172.07 38.9766 172.465 40.0938 172.465ZM51.1094 168.129L49.75 169.547V174H47.582V156H49.75V166.887L50.9102 165.492L54.8594 161.32H57.4961L52.5625 166.617L58.0703 174H55.5273L51.1094 168.129Z" fill="#322D2D"/>
<path d="M129 200H1V328H129V200Z" fill="#141821" stroke="#C5C5C5"/>
<path d="M8.76953 409.266C8.44141 409.211 8.08594 409.184 7.70312 409.184C6.28125 409.184 5.31641 409.789 4.80859 411V420H2.64062V407.32H4.75L4.78516 408.785C5.49609 407.652 6.50391 407.086 7.80859 407.086C8.23047 407.086 8.55078 407.141 8.76953 407.25V409.266ZM15.8008 420.234C14.082 420.234 12.6836 419.672 11.6055 418.547C10.5273 417.414 9.98828 415.902 9.98828 414.012V413.613C9.98828 412.355 10.2266 411.234 10.7031 410.25C11.1875 409.258 11.8594 408.484 12.7188 407.93C13.5859 407.367 14.5234 407.086 15.5312 407.086C17.1797 407.086 18.4609 407.629 19.375 408.715C20.2891 409.801 20.7461 411.355 20.7461 413.379V414.281H12.1562C12.1875 415.531 12.5508 416.543 13.2461 417.316C13.9492 418.082 14.8398 418.465 15.918 418.465C16.6836 418.465 17.332 418.309 17.8633 417.996C18.3945 417.684 18.8594 417.27 19.2578 416.754L20.582 417.785C19.5195 419.418 17.9258 420.234 15.8008 420.234ZM15.5312 408.867C14.6562 408.867 13.9219 409.188 13.3281 409.828C12.7344 410.461 12.3672 411.352 12.2266 412.5H18.5781V412.336C18.5156 411.234 18.2188 410.383 17.6875 409.781C17.1562 409.172 16.4375 408.867 15.5312 408.867ZM22.7383 413.555C22.7383 411.609 23.1992 410.047 24.1211 408.867C25.043 407.68 26.25 407.086 27.7422 407.086C29.2266 407.086 30.4023 407.594 31.2695 408.609V402H33.4375V420H31.4453L31.3398 418.641C30.4727 419.703 29.2656 420.234 27.7188 420.234C26.25 420.234 25.0508 419.633 24.1211 418.43C23.1992 417.227 22.7383 415.656 22.7383 413.719V413.555ZM24.9062 413.801C24.9062 415.238 25.2031 416.363 25.7969 417.176C26.3906 417.988 27.2109 418.395 28.2578 418.395C29.6328 418.395 30.6367 417.777 31.2695 416.543V410.719C30.6211 409.523 29.625 408.926 28.2812 408.926C27.2188 408.926 26.3906 409.336 25.7969 410.156C25.2031 410.977 24.9062 412.191 24.9062 413.801Z" fill="#2E2A2A"/>
<path d="M129 446H1V574H129V446Z" fill="#F23663" stroke="#C2C2C2"/>
<path opacity="0.108143" d="M312 446H184V574H312V446Z" fill="#1A1E27" stroke="#C2C2C2"/>
<path d="M185.113 167.555C185.113 165.609 185.574 164.047 186.496 162.867C187.418 161.68 188.625 161.086 190.117 161.086C191.602 161.086 192.777 161.594 193.645 162.609V156H195.812V174H193.82L193.715 172.641C192.848 173.703 191.641 174.234 190.094 174.234C188.625 174.234 187.426 173.633 186.496 172.43C185.574 171.227 185.113 169.656 185.113 167.719V167.555ZM187.281 167.801C187.281 169.238 187.578 170.363 188.172 171.176C188.766 171.988 189.586 172.395 190.633 172.395C192.008 172.395 193.012 171.777 193.645 170.543V164.719C192.996 163.523 192 162.926 190.656 162.926C189.594 162.926 188.766 163.336 188.172 164.156C187.578 164.977 187.281 166.191 187.281 167.801ZM207.016 174C206.891 173.75 206.789 173.305 206.711 172.664C205.703 173.711 204.5 174.234 203.102 174.234C201.852 174.234 200.824 173.883 200.02 173.18C199.223 172.469 198.824 171.57 198.824 170.484C198.824 169.164 199.324 168.141 200.324 167.414C201.332 166.68 202.746 166.312 204.566 166.312H206.676V165.316C206.676 164.559 206.449 163.957 205.996 163.512C205.543 163.059 204.875 162.832 203.992 162.832C203.219 162.832 202.57 163.027 202.047 163.418C201.523 163.809 201.262 164.281 201.262 164.836H199.082C199.082 164.203 199.305 163.594 199.75 163.008C200.203 162.414 200.812 161.945 201.578 161.602C202.352 161.258 203.199 161.086 204.121 161.086C205.582 161.086 206.727 161.453 207.555 162.188C208.383 162.914 208.812 163.918 208.844 165.199V171.035C208.844 172.199 208.992 173.125 209.289 173.812V174H207.016ZM203.418 172.348C204.098 172.348 204.742 172.172 205.352 171.82C205.961 171.469 206.402 171.012 206.676 170.449V167.848H204.977C202.32 167.848 200.992 168.625 200.992 170.18C200.992 170.859 201.219 171.391 201.672 171.773C202.125 172.156 202.707 172.348 203.418 172.348ZM218.371 163.266C218.043 163.211 217.688 163.184 217.305 163.184C215.883 163.184 214.918 163.789 214.41 165V174H212.242V161.32H214.352L214.387 162.785C215.098 161.652 216.105 161.086 217.41 161.086C217.832 161.086 218.152 161.141 218.371 161.25V163.266ZM223.914 168.129L222.555 169.547V174H220.387V156H222.555V166.887L223.715 165.492L227.664 161.32H230.301L225.367 166.617L230.875 174H228.332L223.914 168.129ZM245.477 171.762C244.898 172.59 244.09 173.211 243.051 173.625C242.02 174.031 240.816 174.234 239.441 174.234C238.051 174.234 236.816 173.91 235.738 173.262C234.66 172.605 233.824 171.676 233.23 170.473C232.645 169.27 232.344 167.875 232.328 166.289V164.801C232.328 162.23 232.926 160.238 234.121 158.824C235.324 157.41 237.012 156.703 239.184 156.703C240.965 156.703 242.398 157.16 243.484 158.074C244.57 158.98 245.234 160.27 245.477 161.941H243.227C242.805 159.684 241.461 158.555 239.195 158.555C237.688 158.555 236.543 159.086 235.762 160.148C234.988 161.203 234.598 162.734 234.59 164.742V166.137C234.59 168.051 235.027 169.574 235.902 170.707C236.777 171.832 237.961 172.395 239.453 172.395C240.297 172.395 241.035 172.301 241.668 172.113C242.301 171.926 242.824 171.609 243.238 171.164V167.332H239.289V165.504H245.477V171.762ZM255.027 163.266C254.699 163.211 254.344 163.184 253.961 163.184C252.539 163.184 251.574 163.789 251.066 165V174H248.898V161.32H251.008L251.043 162.785C251.754 161.652 252.762 161.086 254.066 161.086C254.488 161.086 254.809 161.141 255.027 161.25V163.266ZM262.059 174.234C260.34 174.234 258.941 173.672 257.863 172.547C256.785 171.414 256.246 169.902 256.246 168.012V167.613C256.246 166.355 256.484 165.234 256.961 164.25C257.445 163.258 258.117 162.484 258.977 161.93C259.844 161.367 260.781 161.086 261.789 161.086C263.438 161.086 264.719 161.629 265.633 162.715C266.547 163.801 267.004 165.355 267.004 167.379V168.281H258.414C258.445 169.531 258.809 170.543 259.504 171.316C260.207 172.082 261.098 172.465 262.176 172.465C262.941 172.465 263.59 172.309 264.121 171.996C264.652 171.684 265.117 171.27 265.516 170.754L266.84 171.785C265.777 173.418 264.184 174.234 262.059 174.234ZM261.789 162.867C260.914 162.867 260.18 163.188 259.586 163.828C258.992 164.461 258.625 165.352 258.484 166.5H264.836V166.336C264.773 165.234 264.477 164.383 263.945 163.781C263.414 163.172 262.695 162.867 261.789 162.867ZM273.508 170.824L276.461 161.32H278.781L273.684 175.957C272.895 178.066 271.641 179.121 269.922 179.121L269.512 179.086L268.703 178.934V177.176L269.289 177.223C270.023 177.223 270.594 177.074 271 176.777C271.414 176.48 271.754 175.938 272.02 175.148L272.5 173.859L267.977 161.32H270.344L273.508 170.824Z" fill="#322D2D"/>
<path d="M187.996 420H185.828V402H187.996V420ZM193.832 420H191.664V407.32H193.832V420ZM191.488 403.957C191.488 403.605 191.594 403.309 191.805 403.066C192.023 402.824 192.344 402.703 192.766 402.703C193.188 402.703 193.508 402.824 193.727 403.066C193.945 403.309 194.055 403.605 194.055 403.957C194.055 404.309 193.945 404.602 193.727 404.836C193.508 405.07 193.188 405.188 192.766 405.188C192.344 405.188 192.023 405.07 191.805 404.836C191.594 404.602 191.488 404.309 191.488 403.957ZM196.797 413.555C196.797 411.578 197.254 410.008 198.168 408.844C199.082 407.672 200.293 407.086 201.801 407.086C203.348 407.086 204.555 407.633 205.422 408.727L205.527 407.32H207.508V419.695C207.508 421.336 207.02 422.629 206.043 423.574C205.074 424.52 203.77 424.992 202.129 424.992C201.215 424.992 200.32 424.797 199.445 424.406C198.57 424.016 197.902 423.48 197.441 422.801L198.566 421.5C199.496 422.648 200.633 423.223 201.977 423.223C203.031 423.223 203.852 422.926 204.438 422.332C205.031 421.738 205.328 420.902 205.328 419.824V418.734C204.461 419.734 203.277 420.234 201.777 420.234C200.293 420.234 199.09 419.637 198.168 418.441C197.254 417.246 196.797 415.617 196.797 413.555ZM198.977 413.801C198.977 415.23 199.27 416.355 199.855 417.176C200.441 417.988 201.262 418.395 202.316 418.395C203.684 418.395 204.688 417.773 205.328 416.531V410.742C204.664 409.531 203.668 408.926 202.34 408.926C201.285 408.926 200.461 409.336 199.867 410.156C199.273 410.977 198.977 412.191 198.977 413.801ZM212.957 408.855C213.918 407.676 215.168 407.086 216.707 407.086C219.387 407.086 220.738 408.598 220.762 411.621V420H218.594V411.609C218.586 410.695 218.375 410.02 217.961 409.582C217.555 409.145 216.918 408.926 216.051 408.926C215.348 408.926 214.73 409.113 214.199 409.488C213.668 409.863 213.254 410.355 212.957 410.965V420H210.789V402H212.957V408.855ZM226.949 404.25V407.32H229.316V408.996H226.949V416.859C226.949 417.367 227.055 417.75 227.266 418.008C227.477 418.258 227.836 418.383 228.344 418.383C228.594 418.383 228.938 418.336 229.375 418.242V420C228.805 420.156 228.25 420.234 227.711 420.234C226.742 420.234 226.012 419.941 225.52 419.355C225.027 418.77 224.781 417.938 224.781 416.859V408.996H222.473V407.32H224.781V404.25H226.949ZM238.457 413.098H234.449V420H232.188V402.938H237.836C239.758 402.938 241.234 403.375 242.266 404.25C243.305 405.125 243.824 406.398 243.824 408.07C243.824 409.133 243.535 410.059 242.957 410.848C242.387 411.637 241.59 412.227 240.566 412.617L244.574 419.859V420H242.16L238.457 413.098ZM234.449 411.258H237.906C239.023 411.258 239.91 410.969 240.566 410.391C241.23 409.812 241.562 409.039 241.562 408.07C241.562 407.016 241.246 406.207 240.613 405.645C239.988 405.082 239.082 404.797 237.895 404.789H234.449V411.258ZM251.91 420.234C250.191 420.234 248.793 419.672 247.715 418.547C246.637 417.414 246.098 415.902 246.098 414.012V413.613C246.098 412.355 246.336 411.234 246.812 410.25C247.297 409.258 247.969 408.484 248.828 407.93C249.695 407.367 250.633 407.086 251.641 407.086C253.289 407.086 254.57 407.629 255.484 408.715C256.398 409.801 256.855 411.355 256.855 413.379V414.281H248.266C248.297 415.531 248.66 416.543 249.355 417.316C250.059 418.082 250.949 418.465 252.027 418.465C252.793 418.465 253.441 418.309 253.973 417.996C254.504 417.684 254.969 417.27 255.367 416.754L256.691 417.785C255.629 419.418 254.035 420.234 251.91 420.234ZM251.641 408.867C250.766 408.867 250.031 409.188 249.438 409.828C248.844 410.461 248.477 411.352 248.336 412.5H254.688V412.336C254.625 411.234 254.328 410.383 253.797 409.781C253.266 409.172 252.547 408.867 251.641 408.867ZM258.848 413.555C258.848 411.609 259.309 410.047 260.23 408.867C261.152 407.68 262.359 407.086 263.852 407.086C265.336 407.086 266.512 407.594 267.379 408.609V402H269.547V420H267.555L267.449 418.641C266.582 419.703 265.375 420.234 263.828 420.234C262.359 420.234 261.16 419.633 260.23 418.43C259.309 417.227 258.848 415.656 258.848 413.719V413.555ZM261.016 413.801C261.016 415.238 261.312 416.363 261.906 417.176C262.5 417.988 263.32 418.395 264.367 418.395C265.742 418.395 266.746 417.777 267.379 416.543V410.719C266.73 409.523 265.734 408.926 264.391 408.926C263.328 408.926 262.5 409.336 261.906 410.156C261.312 410.977 261.016 412.191 261.016 413.801Z" fill="#2E2A2A"/>
<path opacity="0.108143" d="M312 446H184V574H312V446Z" fill="#2D313A" stroke="#C2C2C2"/>
<path opacity="0.108143" d="M312 446H184V574H312V446Z" fill="#1A1E27" stroke="#C2C2C2"/>
<path d="M312 200H184V328H312V200Z" fill="#2D313A" stroke="#C5C5C5"/>
<path d="M312 446H184V574H312V446Z" fill="#EB5D71" stroke="#C2C2C2"/>
<path d="M368.125 167.555C368.125 165.578 368.582 164.008 369.496 162.844C370.41 161.672 371.621 161.086 373.129 161.086C374.676 161.086 375.883 161.633 376.75 162.727L376.855 161.32H378.836V173.695C378.836 175.336 378.348 176.629 377.371 177.574C376.402 178.52 375.098 178.992 373.457 178.992C372.543 178.992 371.648 178.797 370.773 178.406C369.898 178.016 369.23 177.48 368.77 176.801L369.895 175.5C370.824 176.648 371.961 177.223 373.305 177.223C374.359 177.223 375.18 176.926 375.766 176.332C376.359 175.738 376.656 174.902 376.656 173.824V172.734C375.789 173.734 374.605 174.234 373.105 174.234C371.621 174.234 370.418 173.637 369.496 172.441C368.582 171.246 368.125 169.617 368.125 167.555ZM370.305 167.801C370.305 169.23 370.598 170.355 371.184 171.176C371.77 171.988 372.59 172.395 373.645 172.395C375.012 172.395 376.016 171.773 376.656 170.531V164.742C375.992 163.531 374.996 162.926 373.668 162.926C372.613 162.926 371.789 163.336 371.195 164.156C370.602 164.977 370.305 166.191 370.305 167.801ZM388.246 163.266C387.918 163.211 387.562 163.184 387.18 163.184C385.758 163.184 384.793 163.789 384.285 165V174H382.117V161.32H384.227L384.262 162.785C384.973 161.652 385.98 161.086 387.285 161.086C387.707 161.086 388.027 161.141 388.246 161.25V163.266ZM395.277 174.234C393.559 174.234 392.16 173.672 391.082 172.547C390.004 171.414 389.465 169.902 389.465 168.012V167.613C389.465 166.355 389.703 165.234 390.18 164.25C390.664 163.258 391.336 162.484 392.195 161.93C393.062 161.367 394 161.086 395.008 161.086C396.656 161.086 397.938 161.629 398.852 162.715C399.766 163.801 400.223 165.355 400.223 167.379V168.281H391.633C391.664 169.531 392.027 170.543 392.723 171.316C393.426 172.082 394.316 172.465 395.395 172.465C396.16 172.465 396.809 172.309 397.34 171.996C397.871 171.684 398.336 171.27 398.734 170.754L400.059 171.785C398.996 173.418 397.402 174.234 395.277 174.234ZM395.008 162.867C394.133 162.867 393.398 163.188 392.805 163.828C392.211 164.461 391.844 165.352 391.703 166.5H398.055V166.336C397.992 165.234 397.695 164.383 397.164 163.781C396.633 163.172 395.914 162.867 395.008 162.867ZM406.727 170.824L409.68 161.32H412L406.902 175.957C406.113 178.066 404.859 179.121 403.141 179.121L402.73 179.086L401.922 178.934V177.176L402.508 177.223C403.242 177.223 403.812 177.074 404.219 176.777C404.633 176.48 404.973 175.938 405.238 175.148L405.719 173.859L401.195 161.32H403.562L406.727 170.824Z" fill="#322D2D"/>
<path d="M368.066 413.543C368.066 412.301 368.309 411.184 368.793 410.191C369.285 409.199 369.965 408.434 370.832 407.895C371.707 407.355 372.703 407.086 373.82 407.086C375.547 407.086 376.941 407.684 378.004 408.879C379.074 410.074 379.609 411.664 379.609 413.648V413.801C379.609 415.035 379.371 416.145 378.895 417.129C378.426 418.105 377.75 418.867 376.867 419.414C375.992 419.961 374.984 420.234 373.844 420.234C372.125 420.234 370.73 419.637 369.66 418.441C368.598 417.246 368.066 415.664 368.066 413.695V413.543ZM370.246 413.801C370.246 415.207 370.57 416.336 371.219 417.188C371.875 418.039 372.75 418.465 373.844 418.465C374.945 418.465 375.82 418.035 376.469 417.176C377.117 416.309 377.441 415.098 377.441 413.543C377.441 412.152 377.109 411.027 376.445 410.168C375.789 409.301 374.914 408.867 373.82 408.867C372.75 408.867 371.887 409.293 371.23 410.145C370.574 410.996 370.246 412.215 370.246 413.801ZM388.457 409.266C388.129 409.211 387.773 409.184 387.391 409.184C385.969 409.184 385.004 409.789 384.496 411V420H382.328V407.32H384.438L384.473 408.785C385.184 407.652 386.191 407.086 387.496 407.086C387.918 407.086 388.238 407.141 388.457 407.25V409.266ZM397.82 420C397.695 419.75 397.594 419.305 397.516 418.664C396.508 419.711 395.305 420.234 393.906 420.234C392.656 420.234 391.629 419.883 390.824 419.18C390.027 418.469 389.629 417.57 389.629 416.484C389.629 415.164 390.129 414.141 391.129 413.414C392.137 412.68 393.551 412.312 395.371 412.312H397.48V411.316C397.48 410.559 397.254 409.957 396.801 409.512C396.348 409.059 395.68 408.832 394.797 408.832C394.023 408.832 393.375 409.027 392.852 409.418C392.328 409.809 392.066 410.281 392.066 410.836H389.887C389.887 410.203 390.109 409.594 390.555 409.008C391.008 408.414 391.617 407.945 392.383 407.602C393.156 407.258 394.004 407.086 394.926 407.086C396.387 407.086 397.531 407.453 398.359 408.188C399.188 408.914 399.617 409.918 399.648 411.199V417.035C399.648 418.199 399.797 419.125 400.094 419.812V420H397.82ZM394.223 418.348C394.902 418.348 395.547 418.172 396.156 417.82C396.766 417.469 397.207 417.012 397.48 416.449V413.848H395.781C393.125 413.848 391.797 414.625 391.797 416.18C391.797 416.859 392.023 417.391 392.477 417.773C392.93 418.156 393.512 418.348 394.223 418.348ZM405.098 407.32L405.168 408.914C406.137 407.695 407.402 407.086 408.965 407.086C411.645 407.086 412.996 408.598 413.02 411.621V420H410.852V411.609C410.844 410.695 410.633 410.02 410.219 409.582C409.812 409.145 409.176 408.926 408.309 408.926C407.605 408.926 406.988 409.113 406.457 409.488C405.926 409.863 405.512 410.355 405.215 410.965V420H403.047V407.32H405.098ZM415.773 413.555C415.773 411.578 416.23 410.008 417.145 408.844C418.059 407.672 419.27 407.086 420.777 407.086C422.324 407.086 423.531 407.633 424.398 408.727L424.504 407.32H426.484V419.695C426.484 421.336 425.996 422.629 425.02 423.574C424.051 424.52 422.746 424.992 421.105 424.992C420.191 424.992 419.297 424.797 418.422 424.406C417.547 424.016 416.879 423.48 416.418 422.801L417.543 421.5C418.473 422.648 419.609 423.223 420.953 423.223C422.008 423.223 422.828 422.926 423.414 422.332C424.008 421.738 424.305 420.902 424.305 419.824V418.734C423.438 419.734 422.254 420.234 420.754 420.234C419.27 420.234 418.066 419.637 417.145 418.441C416.23 417.246 415.773 415.617 415.773 413.555ZM417.953 413.801C417.953 415.23 418.246 416.355 418.832 417.176C419.418 417.988 420.238 418.395 421.293 418.395C422.66 418.395 423.664 417.773 424.305 416.531V410.742C423.641 409.531 422.645 408.926 421.316 408.926C420.262 408.926 419.438 409.336 418.844 410.156C418.25 410.977 417.953 412.191 417.953 413.801ZM435.027 420.234C433.309 420.234 431.91 419.672 430.832 418.547C429.754 417.414 429.215 415.902 429.215 414.012V413.613C429.215 412.355 429.453 411.234 429.93 410.25C430.414 409.258 431.086 408.484 431.945 407.93C432.812 407.367 433.75 407.086 434.758 407.086C436.406 407.086 437.688 407.629 438.602 408.715C439.516 409.801 439.973 411.355 439.973 413.379V414.281H431.383C431.414 415.531 431.777 416.543 432.473 417.316C433.176 418.082 434.066 418.465 435.145 418.465C435.91 418.465 436.559 418.309 437.09 417.996C437.621 417.684 438.086 417.27 438.484 416.754L439.809 417.785C438.746 419.418 437.152 420.234 435.027 420.234ZM434.758 408.867C433.883 408.867 433.148 409.188 432.555 409.828C431.961 410.461 431.594 411.352 431.453 412.5H437.805V412.336C437.742 411.234 437.445 410.383 436.914 409.781C436.383 409.172 435.664 408.867 434.758 408.867Z" fill="#2E2A2A"/>
<path d="M495 200H367V328H495V200Z" fill="#4E575D" stroke="#C5C5C5"/>
<path d="M495 446H367V574H495V446Z" fill="#F8931F" stroke="#C2C2C2"/>
<path d="M736.996 174H734.828V156H736.996V174ZM742.832 174H740.664V161.32H742.832V174ZM740.488 157.957C740.488 157.605 740.594 157.309 740.805 157.066C741.023 156.824 741.344 156.703 741.766 156.703C742.188 156.703 742.508 156.824 742.727 157.066C742.945 157.309 743.055 157.605 743.055 157.957C743.055 158.309 742.945 158.602 742.727 158.836C742.508 159.07 742.188 159.188 741.766 159.188C741.344 159.188 741.023 159.07 740.805 158.836C740.594 158.602 740.488 158.309 740.488 157.957ZM745.797 167.555C745.797 165.578 746.254 164.008 747.168 162.844C748.082 161.672 749.293 161.086 750.801 161.086C752.348 161.086 753.555 161.633 754.422 162.727L754.527 161.32H756.508V173.695C756.508 175.336 756.02 176.629 755.043 177.574C754.074 178.52 752.77 178.992 751.129 178.992C750.215 178.992 749.32 178.797 748.445 178.406C747.57 178.016 746.902 177.48 746.441 176.801L747.566 175.5C748.496 176.648 749.633 177.223 750.977 177.223C752.031 177.223 752.852 176.926 753.438 176.332C754.031 175.738 754.328 174.902 754.328 173.824V172.734C753.461 173.734 752.277 174.234 750.777 174.234C749.293 174.234 748.09 173.637 747.168 172.441C746.254 171.246 745.797 169.617 745.797 167.555ZM747.977 167.801C747.977 169.23 748.27 170.355 748.855 171.176C749.441 171.988 750.262 172.395 751.316 172.395C752.684 172.395 753.688 171.773 754.328 170.531V164.742C753.664 163.531 752.668 162.926 751.34 162.926C750.285 162.926 749.461 163.336 748.867 164.156C748.273 164.977 747.977 166.191 747.977 167.801ZM761.957 162.855C762.918 161.676 764.168 161.086 765.707 161.086C768.387 161.086 769.738 162.598 769.762 165.621V174H767.594V165.609C767.586 164.695 767.375 164.02 766.961 163.582C766.555 163.145 765.918 162.926 765.051 162.926C764.348 162.926 763.73 163.113 763.199 163.488C762.668 163.863 762.254 164.355 761.957 164.965V174H759.789V156H761.957V162.855ZM775.949 158.25V161.32H778.316V162.996H775.949V170.859C775.949 171.367 776.055 171.75 776.266 172.008C776.477 172.258 776.836 172.383 777.344 172.383C777.594 172.383 777.938 172.336 778.375 172.242V174C777.805 174.156 777.25 174.234 776.711 174.234C775.742 174.234 775.012 173.941 774.52 173.355C774.027 172.77 773.781 171.938 773.781 170.859V162.996H771.473V161.32H773.781V158.25H775.949ZM793.797 171.762C793.219 172.59 792.41 173.211 791.371 173.625C790.34 174.031 789.137 174.234 787.762 174.234C786.371 174.234 785.137 173.91 784.059 173.262C782.98 172.605 782.145 171.676 781.551 170.473C780.965 169.27 780.664 167.875 780.648 166.289V164.801C780.648 162.23 781.246 160.238 782.441 158.824C783.645 157.41 785.332 156.703 787.504 156.703C789.285 156.703 790.719 157.16 791.805 158.074C792.891 158.98 793.555 160.27 793.797 161.941H791.547C791.125 159.684 789.781 158.555 787.516 158.555C786.008 158.555 784.863 159.086 784.082 160.148C783.309 161.203 782.918 162.734 782.91 164.742V166.137C782.91 168.051 783.348 169.574 784.223 170.707C785.098 171.832 786.281 172.395 787.773 172.395C788.617 172.395 789.355 172.301 789.988 172.113C790.621 171.926 791.145 171.609 791.559 171.164V167.332H787.609V165.504H793.797V171.762ZM803.348 163.266C803.02 163.211 802.664 163.184 802.281 163.184C800.859 163.184 799.895 163.789 799.387 165V174H797.219V161.32H799.328L799.363 162.785C800.074 161.652 801.082 161.086 802.387 161.086C802.809 161.086 803.129 161.141 803.348 161.25V163.266ZM810.379 174.234C808.66 174.234 807.262 173.672 806.184 172.547C805.105 171.414 804.566 169.902 804.566 168.012V167.613C804.566 166.355 804.805 165.234 805.281 164.25C805.766 163.258 806.438 162.484 807.297 161.93C808.164 161.367 809.102 161.086 810.109 161.086C811.758 161.086 813.039 161.629 813.953 162.715C814.867 163.801 815.324 165.355 815.324 167.379V168.281H806.734C806.766 169.531 807.129 170.543 807.824 171.316C808.527 172.082 809.418 172.465 810.496 172.465C811.262 172.465 811.91 172.309 812.441 171.996C812.973 171.684 813.438 171.27 813.836 170.754L815.16 171.785C814.098 173.418 812.504 174.234 810.379 174.234ZM810.109 162.867C809.234 162.867 808.5 163.188 807.906 163.828C807.312 164.461 806.945 165.352 806.805 166.5H813.156V166.336C813.094 165.234 812.797 164.383 812.266 163.781C811.734 163.172 811.016 162.867 810.109 162.867ZM821.828 170.824L824.781 161.32H827.102L822.004 175.957C821.215 178.066 819.961 179.121 818.242 179.121L817.832 179.086L817.023 178.934V177.176L817.609 177.223C818.344 177.223 818.914 177.074 819.32 176.777C819.734 176.48 820.074 175.938 820.34 175.148L820.82 173.859L816.297 161.32H818.664L821.828 170.824Z" fill="#322D2D"/>
<path d="M562.375 413.801C562.375 415.738 561.93 417.297 561.039 418.477C560.148 419.648 558.953 420.234 557.453 420.234C555.852 420.234 554.613 419.668 553.738 418.535L553.633 420H551.641V402H553.809V408.715C554.684 407.629 555.891 407.086 557.43 407.086C558.969 407.086 560.176 407.668 561.051 408.832C561.934 409.996 562.375 411.59 562.375 413.613V413.801ZM560.207 413.555C560.207 412.078 559.922 410.938 559.352 410.133C558.781 409.328 557.961 408.926 556.891 408.926C555.461 408.926 554.434 409.59 553.809 410.918V416.402C554.473 417.73 555.508 418.395 556.914 418.395C557.953 418.395 558.762 417.992 559.34 417.188C559.918 416.383 560.207 415.172 560.207 413.555ZM567.473 420H565.305V402H567.473V420ZM578.781 418.746C577.938 419.738 576.699 420.234 575.066 420.234C573.715 420.234 572.684 419.844 571.973 419.062C571.27 418.273 570.914 417.109 570.906 415.57V407.32H573.074V415.512C573.074 417.434 573.855 418.395 575.418 418.395C577.074 418.395 578.176 417.777 578.723 416.543V407.32H580.891V420H578.828L578.781 418.746ZM589.457 420.234C587.738 420.234 586.34 419.672 585.262 418.547C584.184 417.414 583.645 415.902 583.645 414.012V413.613C583.645 412.355 583.883 411.234 584.359 410.25C584.844 409.258 585.516 408.484 586.375 407.93C587.242 407.367 588.18 407.086 589.188 407.086C590.836 407.086 592.117 407.629 593.031 408.715C593.945 409.801 594.402 411.355 594.402 413.379V414.281H585.812C585.844 415.531 586.207 416.543 586.902 417.316C587.605 418.082 588.496 418.465 589.574 418.465C590.34 418.465 590.988 418.309 591.52 417.996C592.051 417.684 592.516 417.27 592.914 416.754L594.238 417.785C593.176 419.418 591.582 420.234 589.457 420.234ZM589.188 408.867C588.312 408.867 587.578 409.188 586.984 409.828C586.391 410.461 586.023 411.352 585.883 412.5H592.234V412.336C592.172 411.234 591.875 410.383 591.344 409.781C590.812 409.172 590.094 408.867 589.188 408.867Z" fill="#2E2A2A"/>
<path d="M559.469 172.746C558.625 173.738 557.387 174.234 555.754 174.234C554.402 174.234 553.371 173.844 552.66 173.062C551.957 172.273 551.602 171.109 551.594 169.57V161.32H553.762V169.512C553.762 171.434 554.543 172.395 556.105 172.395C557.762 172.395 558.863 171.777 559.41 170.543V161.32H561.578V174H559.516L559.469 172.746ZM567.238 174H565.07V156H567.238V174ZM573.66 158.25V161.32H576.027V162.996H573.66V170.859C573.66 171.367 573.766 171.75 573.977 172.008C574.188 172.258 574.547 172.383 575.055 172.383C575.305 172.383 575.648 172.336 576.086 172.242V174C575.516 174.156 574.961 174.234 574.422 174.234C573.453 174.234 572.723 173.941 572.23 173.355C571.738 172.77 571.492 171.938 571.492 170.859V162.996H569.184V161.32H571.492V158.25H573.66ZM584.699 163.266C584.371 163.211 584.016 163.184 583.633 163.184C582.211 163.184 581.246 163.789 580.738 165V174H578.57V161.32H580.68L580.715 162.785C581.426 161.652 582.434 161.086 583.738 161.086C584.16 161.086 584.48 161.141 584.699 161.25V163.266ZM594.062 174C593.938 173.75 593.836 173.305 593.758 172.664C592.75 173.711 591.547 174.234 590.148 174.234C588.898 174.234 587.871 173.883 587.066 173.18C586.27 172.469 585.871 171.57 585.871 170.484C585.871 169.164 586.371 168.141 587.371 167.414C588.379 166.68 589.793 166.312 591.613 166.312H593.723V165.316C593.723 164.559 593.496 163.957 593.043 163.512C592.59 163.059 591.922 162.832 591.039 162.832C590.266 162.832 589.617 163.027 589.094 163.418C588.57 163.809 588.309 164.281 588.309 164.836H586.129C586.129 164.203 586.352 163.594 586.797 163.008C587.25 162.414 587.859 161.945 588.625 161.602C589.398 161.258 590.246 161.086 591.168 161.086C592.629 161.086 593.773 161.453 594.602 162.188C595.43 162.914 595.859 163.918 595.891 165.199V171.035C595.891 172.199 596.039 173.125 596.336 173.812V174H594.062ZM590.465 172.348C591.145 172.348 591.789 172.172 592.398 171.82C593.008 171.469 593.449 171.012 593.723 170.449V167.848H592.023C589.367 167.848 588.039 168.625 588.039 170.18C588.039 170.859 588.266 171.391 588.719 171.773C589.172 172.156 589.754 172.348 590.465 172.348ZM601.891 172.16H609.977V174H599.629V156.938H601.891V172.16ZM614.559 174H612.391V161.32H614.559V174ZM612.215 157.957C612.215 157.605 612.32 157.309 612.531 157.066C612.75 156.824 613.07 156.703 613.492 156.703C613.914 156.703 614.234 156.824 614.453 157.066C614.672 157.309 614.781 157.605 614.781 157.957C614.781 158.309 614.672 158.602 614.453 158.836C614.234 159.07 613.914 159.188 613.492 159.188C613.07 159.188 612.75 159.07 612.531 158.836C612.32 158.602 612.215 158.309 612.215 157.957ZM617.523 167.555C617.523 165.578 617.98 164.008 618.895 162.844C619.809 161.672 621.02 161.086 622.527 161.086C624.074 161.086 625.281 161.633 626.148 162.727L626.254 161.32H628.234V173.695C628.234 175.336 627.746 176.629 626.77 177.574C625.801 178.52 624.496 178.992 622.855 178.992C621.941 178.992 621.047 178.797 620.172 178.406C619.297 178.016 618.629 177.48 618.168 176.801L619.293 175.5C620.223 176.648 621.359 177.223 622.703 177.223C623.758 177.223 624.578 176.926 625.164 176.332C625.758 175.738 626.055 174.902 626.055 173.824V172.734C625.188 173.734 624.004 174.234 622.504 174.234C621.02 174.234 619.816 173.637 618.895 172.441C617.98 171.246 617.523 169.617 617.523 167.555ZM619.703 167.801C619.703 169.23 619.996 170.355 620.582 171.176C621.168 171.988 621.988 172.395 623.043 172.395C624.41 172.395 625.414 171.773 626.055 170.531V164.742C625.391 163.531 624.395 162.926 623.066 162.926C622.012 162.926 621.188 163.336 620.594 164.156C620 164.977 619.703 166.191 619.703 167.801ZM633.684 162.855C634.645 161.676 635.895 161.086 637.434 161.086C640.113 161.086 641.465 162.598 641.488 165.621V174H639.32V165.609C639.312 164.695 639.102 164.02 638.688 163.582C638.281 163.145 637.645 162.926 636.777 162.926C636.074 162.926 635.457 163.113 634.926 163.488C634.395 163.863 633.98 164.355 633.684 164.965V174H631.516V156H633.684V162.855ZM647.676 158.25V161.32H650.043V162.996H647.676V170.859C647.676 171.367 647.781 171.75 647.992 172.008C648.203 172.258 648.562 172.383 649.07 172.383C649.32 172.383 649.664 172.336 650.102 172.242V174C649.531 174.156 648.977 174.234 648.438 174.234C647.469 174.234 646.738 173.941 646.246 173.355C645.754 172.77 645.508 171.938 645.508 170.859V162.996H643.199V161.32H645.508V158.25H647.676ZM665.523 171.762C664.945 172.59 664.137 173.211 663.098 173.625C662.066 174.031 660.863 174.234 659.488 174.234C658.098 174.234 656.863 173.91 655.785 173.262C654.707 172.605 653.871 171.676 653.277 170.473C652.691 169.27 652.391 167.875 652.375 166.289V164.801C652.375 162.23 652.973 160.238 654.168 158.824C655.371 157.41 657.059 156.703 659.23 156.703C661.012 156.703 662.445 157.16 663.531 158.074C664.617 158.98 665.281 160.27 665.523 161.941H663.273C662.852 159.684 661.508 158.555 659.242 158.555C657.734 158.555 656.59 159.086 655.809 160.148C655.035 161.203 654.645 162.734 654.637 164.742V166.137C654.637 168.051 655.074 169.574 655.949 170.707C656.824 171.832 658.008 172.395 659.5 172.395C660.344 172.395 661.082 172.301 661.715 172.113C662.348 171.926 662.871 171.609 663.285 171.164V167.332H659.336V165.504H665.523V171.762ZM675.074 163.266C674.746 163.211 674.391 163.184 674.008 163.184C672.586 163.184 671.621 163.789 671.113 165V174H668.945V161.32H671.055L671.09 162.785C671.801 161.652 672.809 161.086 674.113 161.086C674.535 161.086 674.855 161.141 675.074 161.25V163.266ZM682.105 174.234C680.387 174.234 678.988 173.672 677.91 172.547C676.832 171.414 676.293 169.902 676.293 168.012V167.613C676.293 166.355 676.531 165.234 677.008 164.25C677.492 163.258 678.164 162.484 679.023 161.93C679.891 161.367 680.828 161.086 681.836 161.086C683.484 161.086 684.766 161.629 685.68 162.715C686.594 163.801 687.051 165.355 687.051 167.379V168.281H678.461C678.492 169.531 678.855 170.543 679.551 171.316C680.254 172.082 681.145 172.465 682.223 172.465C682.988 172.465 683.637 172.309 684.168 171.996C684.699 171.684 685.164 171.27 685.562 170.754L686.887 171.785C685.824 173.418 684.23 174.234 682.105 174.234ZM681.836 162.867C680.961 162.867 680.227 163.188 679.633 163.828C679.039 164.461 678.672 165.352 678.531 166.5H684.883V166.336C684.82 165.234 684.523 164.383 683.992 163.781C683.461 163.172 682.742 162.867 681.836 162.867ZM693.555 170.824L696.508 161.32H698.828L693.73 175.957C692.941 178.066 691.688 179.121 689.969 179.121L689.559 179.086L688.75 178.934V177.176L689.336 177.223C690.07 177.223 690.641 177.074 691.047 176.777C691.461 176.48 691.801 175.938 692.066 175.148L692.547 173.859L688.023 161.32H690.391L693.555 170.824Z" fill="#322D2D"/>
<path d="M736.996 420H734.828V402H736.996V420ZM742.832 420H740.664V407.32H742.832V420ZM740.488 403.957C740.488 403.605 740.594 403.309 740.805 403.066C741.023 402.824 741.344 402.703 741.766 402.703C742.188 402.703 742.508 402.824 742.727 403.066C742.945 403.309 743.055 403.605 743.055 403.957C743.055 404.309 742.945 404.602 742.727 404.836C742.508 405.07 742.188 405.188 741.766 405.188C741.344 405.188 741.023 405.07 740.805 404.836C740.594 404.602 740.488 404.309 740.488 403.957ZM745.797 413.555C745.797 411.578 746.254 410.008 747.168 408.844C748.082 407.672 749.293 407.086 750.801 407.086C752.348 407.086 753.555 407.633 754.422 408.727L754.527 407.32H756.508V419.695C756.508 421.336 756.02 422.629 755.043 423.574C754.074 424.52 752.77 424.992 751.129 424.992C750.215 424.992 749.32 424.797 748.445 424.406C747.57 424.016 746.902 423.48 746.441 422.801L747.566 421.5C748.496 422.648 749.633 423.223 750.977 423.223C752.031 423.223 752.852 422.926 753.438 422.332C754.031 421.738 754.328 420.902 754.328 419.824V418.734C753.461 419.734 752.277 420.234 750.777 420.234C749.293 420.234 748.09 419.637 747.168 418.441C746.254 417.246 745.797 415.617 745.797 413.555ZM747.977 413.801C747.977 415.23 748.27 416.355 748.855 417.176C749.441 417.988 750.262 418.395 751.316 418.395C752.684 418.395 753.688 417.773 754.328 416.531V410.742C753.664 409.531 752.668 408.926 751.34 408.926C750.285 408.926 749.461 409.336 748.867 410.156C748.273 410.977 747.977 412.191 747.977 413.801ZM761.957 408.855C762.918 407.676 764.168 407.086 765.707 407.086C768.387 407.086 769.738 408.598 769.762 411.621V420H767.594V411.609C767.586 410.695 767.375 410.02 766.961 409.582C766.555 409.145 765.918 408.926 765.051 408.926C764.348 408.926 763.73 409.113 763.199 409.488C762.668 409.863 762.254 410.355 761.957 410.965V420H759.789V402H761.957V408.855ZM775.949 404.25V407.32H778.316V408.996H775.949V416.859C775.949 417.367 776.055 417.75 776.266 418.008C776.477 418.258 776.836 418.383 777.344 418.383C777.594 418.383 777.938 418.336 778.375 418.242V420C777.805 420.156 777.25 420.234 776.711 420.234C775.742 420.234 775.012 419.941 774.52 419.355C774.027 418.77 773.781 417.938 773.781 416.859V408.996H771.473V407.32H773.781V404.25H775.949ZM781.199 420V402.938H786.777C788.629 402.938 790.02 403.32 790.949 404.086C791.887 404.852 792.355 405.984 792.355 407.484C792.355 408.281 792.129 408.988 791.676 409.605C791.223 410.215 790.605 410.688 789.824 411.023C790.746 411.281 791.473 411.773 792.004 412.5C792.543 413.219 792.812 414.078 792.812 415.078C792.812 416.609 792.316 417.812 791.324 418.688C790.332 419.562 788.93 420 787.117 420H781.199ZM783.449 412.02V418.16H787.164C788.211 418.16 789.035 417.891 789.637 417.352C790.246 416.805 790.551 416.055 790.551 415.102C790.551 413.047 789.434 412.02 787.199 412.02H783.449ZM783.449 410.215H786.848C787.832 410.215 788.617 409.969 789.203 409.477C789.797 408.984 790.094 408.316 790.094 407.473C790.094 406.535 789.82 405.855 789.273 405.434C788.727 405.004 787.895 404.789 786.777 404.789H783.449V410.215ZM798.168 420H796V402H798.168V420ZM809.477 418.746C808.633 419.738 807.395 420.234 805.762 420.234C804.41 420.234 803.379 419.844 802.668 419.062C801.965 418.273 801.609 417.109 801.602 415.57V407.32H803.77V415.512C803.77 417.434 804.551 418.395 806.113 418.395C807.77 418.395 808.871 417.777 809.418 416.543V407.32H811.586V420H809.523L809.477 418.746ZM820.152 420.234C818.434 420.234 817.035 419.672 815.957 418.547C814.879 417.414 814.34 415.902 814.34 414.012V413.613C814.34 412.355 814.578 411.234 815.055 410.25C815.539 409.258 816.211 408.484 817.07 407.93C817.938 407.367 818.875 407.086 819.883 407.086C821.531 407.086 822.812 407.629 823.727 408.715C824.641 409.801 825.098 411.355 825.098 413.379V414.281H816.508C816.539 415.531 816.902 416.543 817.598 417.316C818.301 418.082 819.191 418.465 820.27 418.465C821.035 418.465 821.684 418.309 822.215 417.996C822.746 417.684 823.211 417.27 823.609 416.754L824.934 417.785C823.871 419.418 822.277 420.234 820.152 420.234ZM819.883 408.867C819.008 408.867 818.273 409.188 817.68 409.828C817.086 410.461 816.719 411.352 816.578 412.5H822.93V412.336C822.867 411.234 822.57 410.383 822.039 409.781C821.508 409.172 820.789 408.867 819.883 408.867Z" fill="#2E2A2A"/>
<path d="M925.469 172.746C924.625 173.738 923.387 174.234 921.754 174.234C920.402 174.234 919.371 173.844 918.66 173.062C917.957 172.273 917.602 171.109 917.594 169.57V161.32H919.762V169.512C919.762 171.434 920.543 172.395 922.105 172.395C923.762 172.395 924.863 171.777 925.41 170.543V161.32H927.578V174H925.516L925.469 172.746ZM933.238 174H931.07V156H933.238V174ZM939.66 158.25V161.32H942.027V162.996H939.66V170.859C939.66 171.367 939.766 171.75 939.977 172.008C940.188 172.258 940.547 172.383 941.055 172.383C941.305 172.383 941.648 172.336 942.086 172.242V174C941.516 174.156 940.961 174.234 940.422 174.234C939.453 174.234 938.723 173.941 938.23 173.355C937.738 172.77 937.492 171.938 937.492 170.859V162.996H935.184V161.32H937.492V158.25H939.66ZM950.699 163.266C950.371 163.211 950.016 163.184 949.633 163.184C948.211 163.184 947.246 163.789 946.738 165V174H944.57V161.32H946.68L946.715 162.785C947.426 161.652 948.434 161.086 949.738 161.086C950.16 161.086 950.48 161.141 950.699 161.25V163.266ZM960.062 174C959.938 173.75 959.836 173.305 959.758 172.664C958.75 173.711 957.547 174.234 956.148 174.234C954.898 174.234 953.871 173.883 953.066 173.18C952.27 172.469 951.871 171.57 951.871 170.484C951.871 169.164 952.371 168.141 953.371 167.414C954.379 166.68 955.793 166.312 957.613 166.312H959.723V165.316C959.723 164.559 959.496 163.957 959.043 163.512C958.59 163.059 957.922 162.832 957.039 162.832C956.266 162.832 955.617 163.027 955.094 163.418C954.57 163.809 954.309 164.281 954.309 164.836H952.129C952.129 164.203 952.352 163.594 952.797 163.008C953.25 162.414 953.859 161.945 954.625 161.602C955.398 161.258 956.246 161.086 957.168 161.086C958.629 161.086 959.773 161.453 960.602 162.188C961.43 162.914 961.859 163.918 961.891 165.199V171.035C961.891 172.199 962.039 173.125 962.336 173.812V174H960.062ZM956.465 172.348C957.145 172.348 957.789 172.172 958.398 171.82C959.008 171.469 959.449 171.012 959.723 170.449V167.848H958.023C955.367 167.848 954.039 168.625 954.039 170.18C954.039 170.859 954.266 171.391 954.719 171.773C955.172 172.156 955.754 172.348 956.465 172.348ZM967.891 172.16H975.977V174H965.629V156.938H967.891V172.16ZM980.559 174H978.391V161.32H980.559V174ZM978.215 157.957C978.215 157.605 978.32 157.309 978.531 157.066C978.75 156.824 979.07 156.703 979.492 156.703C979.914 156.703 980.234 156.824 980.453 157.066C980.672 157.309 980.781 157.605 980.781 157.957C980.781 158.309 980.672 158.602 980.453 158.836C980.234 159.07 979.914 159.188 979.492 159.188C979.07 159.188 978.75 159.07 978.531 158.836C978.32 158.602 978.215 158.309 978.215 157.957ZM983.523 167.555C983.523 165.578 983.98 164.008 984.895 162.844C985.809 161.672 987.02 161.086 988.527 161.086C990.074 161.086 991.281 161.633 992.148 162.727L992.254 161.32H994.234V173.695C994.234 175.336 993.746 176.629 992.77 177.574C991.801 178.52 990.496 178.992 988.855 178.992C987.941 178.992 987.047 178.797 986.172 178.406C985.297 178.016 984.629 177.48 984.168 176.801L985.293 175.5C986.223 176.648 987.359 177.223 988.703 177.223C989.758 177.223 990.578 176.926 991.164 176.332C991.758 175.738 992.055 174.902 992.055 173.824V172.734C991.188 173.734 990.004 174.234 988.504 174.234C987.02 174.234 985.816 173.637 984.895 172.441C983.98 171.246 983.523 169.617 983.523 167.555ZM985.703 167.801C985.703 169.23 985.996 170.355 986.582 171.176C987.168 171.988 987.988 172.395 989.043 172.395C990.41 172.395 991.414 171.773 992.055 170.531V164.742C991.391 163.531 990.395 162.926 989.066 162.926C988.012 162.926 987.188 163.336 986.594 164.156C986 164.977 985.703 166.191 985.703 167.801ZM999.684 162.855C1000.64 161.676 1001.89 161.086 1003.43 161.086C1006.11 161.086 1007.46 162.598 1007.49 165.621V174H1005.32V165.609C1005.31 164.695 1005.1 164.02 1004.69 163.582C1004.28 163.145 1003.64 162.926 1002.78 162.926C1002.07 162.926 1001.46 163.113 1000.93 163.488C1000.39 163.863 999.98 164.355 999.684 164.965V174H997.516V156H999.684V162.855ZM1013.68 158.25V161.32H1016.04V162.996H1013.68V170.859C1013.68 171.367 1013.78 171.75 1013.99 172.008C1014.2 172.258 1014.56 172.383 1015.07 172.383C1015.32 172.383 1015.66 172.336 1016.1 172.242V174C1015.53 174.156 1014.98 174.234 1014.44 174.234C1013.47 174.234 1012.74 173.941 1012.25 173.355C1011.75 172.77 1011.51 171.938 1011.51 170.859V162.996H1009.2V161.32H1011.51V158.25H1013.68ZM1018.93 174V156.938H1024.5C1026.36 156.938 1027.75 157.32 1028.68 158.086C1029.61 158.852 1030.08 159.984 1030.08 161.484C1030.08 162.281 1029.86 162.988 1029.4 163.605C1028.95 164.215 1028.33 164.688 1027.55 165.023C1028.47 165.281 1029.2 165.773 1029.73 166.5C1030.27 167.219 1030.54 168.078 1030.54 169.078C1030.54 170.609 1030.04 171.812 1029.05 172.688C1028.06 173.562 1026.66 174 1024.84 174H1018.93ZM1021.18 166.02V172.16H1024.89C1025.94 172.16 1026.76 171.891 1027.36 171.352C1027.97 170.805 1028.28 170.055 1028.28 169.102C1028.28 167.047 1027.16 166.02 1024.93 166.02H1021.18ZM1021.18 164.215H1024.57C1025.56 164.215 1026.34 163.969 1026.93 163.477C1027.52 162.984 1027.82 162.316 1027.82 161.473C1027.82 160.535 1027.55 159.855 1027 159.434C1026.45 159.004 1025.62 158.789 1024.5 158.789H1021.18V164.215ZM1035.89 174H1033.73V156H1035.89V174ZM1047.2 172.746C1046.36 173.738 1045.12 174.234 1043.49 174.234C1042.14 174.234 1041.11 173.844 1040.39 173.062C1039.69 172.273 1039.34 171.109 1039.33 169.57V161.32H1041.5V169.512C1041.5 171.434 1042.28 172.395 1043.84 172.395C1045.5 172.395 1046.6 171.777 1047.14 170.543V161.32H1049.31V174H1047.25L1047.2 172.746ZM1057.88 174.234C1056.16 174.234 1054.76 173.672 1053.68 172.547C1052.61 171.414 1052.07 169.902 1052.07 168.012V167.613C1052.07 166.355 1052.3 165.234 1052.78 164.25C1053.27 163.258 1053.94 162.484 1054.8 161.93C1055.66 161.367 1056.6 161.086 1057.61 161.086C1059.26 161.086 1060.54 161.629 1061.45 162.715C1062.37 163.801 1062.82 165.355 1062.82 167.379V168.281H1054.23C1054.27 169.531 1054.63 170.543 1055.32 171.316C1056.03 172.082 1056.92 172.465 1058 172.465C1058.76 172.465 1059.41 172.309 1059.94 171.996C1060.47 171.684 1060.94 171.27 1061.34 170.754L1062.66 171.785C1061.6 173.418 1060 174.234 1057.88 174.234ZM1057.61 162.867C1056.73 162.867 1056 163.188 1055.41 163.828C1054.81 164.461 1054.45 165.352 1054.3 166.5H1060.66V166.336C1060.59 165.234 1060.3 164.383 1059.77 163.781C1059.23 163.172 1058.52 162.867 1057.61 162.867Z" fill="#2E2A2A"/>
<path d="M861 200H733V328H861V200Z" fill="#E2E2E2" stroke="#C5C5C5"/>
<path d="M678 446H550V574H678V446Z" fill="#15A7C9" stroke="#C2C2C2"/>
<path d="M678 200H550V328H678V200Z" fill="#EFEFEF" stroke="#C5C5C5"/>
<path d="M861 446H733V574H861V446Z" fill="#90AFC4" stroke="#C2C2C2"/>
<path d="M1046.5 200H918.5V328H1046.5V200Z" fill="#C8F7FF" stroke="#C2C2C2"/>
<path d="M7.15234 15.8125H13.9375V61.4805H39.1797V15.8125H45.9297V61.3398H51.3086L50.6758 79.3398H44.5938V67H7.15234V15.8125ZM59.1836 67V28.9609H74.0195C79.082 28.9609 82.9609 29.8516 85.6562 31.6328C88.375 33.3906 89.7344 35.9805 89.7344 39.4023C89.7344 41.1602 89.207 42.7539 88.1523 44.1836C87.0977 45.5898 85.5391 46.668 83.4766 47.418C85.7734 47.957 87.6133 49.0117 88.9961 50.582C90.4023 52.1523 91.1055 54.0273 91.1055 56.207C91.1055 59.6992 89.8164 62.3711 87.2383 64.2227C84.6836 66.0742 81.0625 67 76.375 67H59.1836ZM65.6875 50.3008V61.7617H76.4453C79.1641 61.7617 81.1914 61.2578 82.5273 60.25C83.8867 59.2422 84.5664 57.8242 84.5664 55.9961C84.5664 52.1992 81.7773 50.3008 76.1992 50.3008H65.6875ZM65.6875 45.0977H74.0898C80.1836 45.0977 83.2305 43.3164 83.2305 39.7539C83.2305 36.1914 80.3477 34.3516 74.582 34.2344H65.6875V45.0977ZM115.504 67.7031C110.348 67.7031 106.152 66.0156 102.918 62.6406C99.6836 59.2422 98.0664 54.707 98.0664 49.0352V47.8398C98.0664 44.0664 98.7812 40.7031 100.211 37.75C101.664 34.7734 103.68 32.4531 106.258 30.7891C108.859 29.1016 111.672 28.2578 114.695 28.2578C119.641 28.2578 123.484 29.8867 126.227 33.1445C128.969 36.4023 130.34 41.0664 130.34 47.1367V49.8438H104.57C104.664 53.5938 105.754 56.6289 107.84 58.9492C109.949 61.2461 112.621 62.3945 115.855 62.3945C118.152 62.3945 120.098 61.9258 121.691 60.9883C123.285 60.0508 124.68 58.8086 125.875 57.2617L129.848 60.3555C126.66 65.2539 121.879 67.7031 115.504 67.7031ZM114.695 33.6016C112.07 33.6016 109.867 34.5625 108.086 36.4844C106.305 38.3828 105.203 41.0547 104.781 44.5H123.836V44.0078C123.648 40.7031 122.758 38.1484 121.164 36.3438C119.57 34.5156 117.414 33.6016 114.695 33.6016ZM165.742 34.2344H152.98V67H146.477V34.2344H133.961V28.9609H165.742V34.2344ZM194.992 67C194.617 66.25 194.312 64.9141 194.078 62.9922C191.055 66.1328 187.445 67.7031 183.25 67.7031C179.5 67.7031 176.418 66.6484 174.004 64.5391C171.613 62.4062 170.418 59.7109 170.418 56.4531C170.418 52.4922 171.918 49.4219 174.918 47.2422C177.941 45.0391 182.184 43.9375 187.645 43.9375H193.973V40.9492C193.973 38.6758 193.293 36.8711 191.934 35.5352C190.574 34.1758 188.57 33.4961 185.922 33.4961C183.602 33.4961 181.656 34.082 180.086 35.2539C178.516 36.4258 177.73 37.8438 177.73 39.5078H171.191C171.191 37.6094 171.859 35.7812 173.195 34.0234C174.555 32.2422 176.383 30.8359 178.68 29.8047C181 28.7734 183.543 28.2578 186.309 28.2578C190.691 28.2578 194.125 29.3594 196.609 31.5625C199.094 33.7422 200.383 36.7539 200.477 40.5977V58.1055C200.477 61.5977 200.922 64.375 201.812 66.4375V67H194.992ZM184.199 62.043C186.238 62.043 188.172 61.5156 190 60.4609C191.828 59.4062 193.152 58.0352 193.973 56.3477V48.543H188.875C180.906 48.543 176.922 50.875 176.922 55.5391C176.922 57.5781 177.602 59.1719 178.961 60.3203C180.32 61.4688 182.066 62.043 184.199 62.043Z" fill="#322D2D"/>
</svg>
